<?xml version="1.0" standalone="no"?>
<!DOCTYPE svg PUBLIC "-//W3C//DTD SVG 20010904//EN"
 "http://www.w3.org/TR/2001/REC-SVG-20010904/DTD/svg10.dtd">
<svg version="1.0" xmlns="http://www.w3.org/2000/svg"
 width="1080.000000pt" height="1080.000000pt" viewBox="0 0 1080.000000 1080.000000"
 preserveAspectRatio="xMidYMid meet">
<metadata>
Created by potrace 1.14, written by Peter Selinger 2001-2017
</metadata>
<g transform="translate(0.000000,1080.000000) scale(0.100000,-0.100000)"
fill="#000000" stroke="none">
<path d="M4890 9271 c0 -3 -17 -6 -38 -7 -38 -1 -165 -12 -217 -19 -16 -2 -46
-6 -65 -9 -19 -3 -50 -6 -67 -7 -18 -2 -33 -6 -33 -10 0 -4 -10 -7 -22 -6 -13
0 -36 -3 -53 -6 -16 -4 -40 -9 -53 -11 -13 -3 -31 -7 -40 -10 -9 -3 -32 -8
-51 -11 -19 -3 -42 -10 -52 -16 -11 -5 -19 -8 -19 -5 0 3 -15 0 -32 -5 -18 -6
-44 -12 -57 -15 -14 -3 -29 -8 -35 -12 -6 -3 -19 -8 -30 -9 -10 -2 -57 -17
-105 -34 -47 -17 -90 -32 -96 -33 -5 -1 -16 -5 -22 -9 -7 -5 -23 -10 -35 -12
-12 -3 -24 -8 -27 -13 -3 -4 -13 -7 -21 -7 -8 0 -18 -3 -21 -8 -3 -5 -12 -10
-20 -11 -8 -2 -45 -17 -82 -34 -38 -18 -73 -32 -78 -32 -5 0 -9 -4 -9 -10 0
-5 -3 -9 -7 -8 -9 2 -105 -41 -113 -51 -3 -3 -40 -24 -82 -46 -43 -22 -78 -43
-78 -47 0 -5 -7 -8 -15 -8 -8 0 -15 -4 -15 -10 0 -5 -6 -10 -12 -10 -15 0
-171 -99 -176 -112 -2 -4 -8 -8 -14 -8 -18 0 -296 -220 -379 -300 -20 -19 -49
-47 -65 -61 -16 -14 -76 -76 -134 -138 -58 -62 -117 -126 -133 -142 -15 -16
-27 -32 -27 -35 0 -3 -6 -11 -12 -18 -7 -7 -24 -27 -38 -45 -14 -18 -32 -40
-40 -51 -8 -10 -24 -31 -35 -46 -11 -15 -26 -33 -32 -40 -7 -7 -13 -17 -13
-22 0 -5 -9 -20 -21 -33 -11 -13 -42 -58 -67 -99 -25 -41 -49 -77 -52 -80 -3
-3 -14 -21 -25 -40 -10 -19 -32 -57 -47 -85 -30 -54 -133 -261 -166 -335 -84
-187 -188 -518 -228 -725 -4 -22 -8 -44 -9 -50 -8 -37 -36 -208 -39 -245 -3
-25 -9 -81 -13 -125 -16 -160 -7 -676 12 -776 5 -22 9 -48 21 -136 6 -48 54
-285 59 -293 2 -3 6 -17 8 -31 23 -125 152 -486 232 -653 19 -39 35 -77 35
-83 0 -7 3 -13 8 -13 4 0 14 -15 21 -32 21 -49 159 -287 187 -323 13 -18 24
-37 24 -43 0 -7 4 -12 8 -12 5 0 18 -18 31 -40 12 -22 26 -40 32 -40 5 0 9 -5
9 -11 0 -11 132 -183 211 -274 97 -112 389 -393 460 -443 25 -18 63 -48 85
-70 8 -7 14 -10 14 -6 0 4 8 -2 17 -12 10 -11 35 -30 56 -43 20 -12 37 -27 37
-32 0 -6 4 -8 9 -5 4 3 16 -3 26 -14 10 -11 24 -20 32 -20 7 0 13 -4 13 -10 0
-5 7 -10 15 -10 8 0 15 -4 15 -10 0 -5 6 -10 14 -10 8 0 16 -4 18 -8 4 -11
252 -152 267 -152 6 0 11 -5 11 -11 0 -5 5 -7 10 -4 6 3 10 2 10 -2 0 -5 23
-17 50 -28 28 -11 50 -23 50 -27 0 -4 9 -8 20 -8 11 0 20 -4 20 -8 0 -4 10 -9
22 -9 13 -1 24 -7 26 -13 2 -5 12 -10 22 -10 10 0 21 -4 25 -9 3 -5 19 -12 35
-16 17 -4 30 -11 30 -15 0 -5 6 -7 14 -4 8 3 17 1 21 -5 3 -6 12 -11 19 -11 8
0 31 -8 52 -17 41 -17 60 -23 82 -25 6 -1 12 -5 12 -10 0 -4 3 -7 8 -6 6 3 67
-14 112 -30 21 -7 42 -12 63 -14 9 -1 17 -5 17 -9 0 -4 22 -10 50 -14 27 -4
52 -11 55 -16 3 -4 12 -6 20 -2 8 3 15 1 15 -4 0 -5 8 -9 18 -10 46 -2 82 -8
82 -13 0 -3 8 -6 18 -6 16 -1 71 -9 117 -18 37 -7 120 -18 145 -20 14 0 28 -5
32 -11 5 -6 8 -6 8 1 0 8 11 9 34 4 19 -4 37 -5 40 -2 4 3 6 1 6 -4 0 -5 39
-9 86 -9 47 0 87 -2 89 -5 3 -5 350 -5 350 0 0 1 34 3 75 5 41 2 93 6 115 10
22 3 65 7 95 10 30 2 55 4 55 5 0 3 43 11 80 14 22 2 74 11 115 21 41 9 83 17
93 18 9 1 17 4 17 7 0 3 8 6 18 6 22 1 80 15 140 33 17 5 32 7 32 4 0 -3 6 -1
13 5 6 5 28 13 47 17 19 4 41 11 50 15 8 5 49 19 90 31 41 12 80 25 85 29 6 4
39 17 75 30 36 13 76 30 90 37 14 7 31 13 38 13 6 0 12 5 12 10 0 6 6 10 13
10 8 0 35 11 62 25 27 13 52 22 56 20 4 -3 10 2 13 11 3 8 10 12 16 9 5 -3 10
-3 10 2 0 4 25 19 55 33 30 14 55 28 55 32 0 3 14 9 30 13 17 4 30 10 30 14 0
3 17 15 38 26 20 11 51 30 68 42 17 13 36 23 42 23 7 0 12 4 12 8 0 4 23 21
50 37 28 16 50 33 50 37 0 4 6 8 13 8 8 0 22 9 32 20 10 11 22 20 27 20 5 0
20 11 34 25 14 14 28 25 32 25 4 0 21 12 37 28 17 15 47 40 68 56 21 15 52 41
68 57 16 16 32 29 34 29 9 0 280 275 335 339 30 35 60 69 66 75 6 6 46 58 88
116 43 58 83 108 88 111 5 3 9 10 9 15 -1 5 4 16 11 24 12 15 30 42 90 135 74
116 218 389 218 414 0 6 5 11 10 11 6 0 10 8 10 18 0 10 3 22 6 25 6 6 52 110
58 132 5 16 17 48 32 82 8 17 14 37 14 45 0 8 3 18 8 22 4 4 7 11 7 14 1 4 15
52 32 107 17 55 34 114 39 130 4 17 8 32 9 35 7 26 45 202 49 225 3 17 7 39 9
50 5 20 21 133 32 215 27 218 28 606 1 850 -12 111 -20 158 -42 275 -30 151
-28 143 -48 217 -8 31 -17 67 -20 80 -2 12 -11 42 -20 66 -8 23 -13 42 -11 42
2 0 -4 20 -15 45 -11 25 -20 49 -21 53 -4 17 -13 43 -60 164 -68 174 -185 414
-262 535 -15 24 -27 47 -27 53 0 5 -4 10 -10 10 -5 0 -10 4 -10 9 0 8 -70 119
-92 146 -5 6 -36 48 -71 95 -79 108 -87 118 -118 151 -15 16 -29 35 -32 44 -4
8 -11 15 -17 15 -6 0 -8 5 -5 10 3 6 -1 10 -9 10 -9 0 -16 4 -16 8 0 4 -33 42
-72 84 -40 42 -80 85 -89 95 -31 35 -186 174 -263 236 -21 18 -44 38 -51 45
-8 6 -18 12 -24 12 -6 0 -11 3 -11 8 0 8 -119 97 -129 97 -3 0 -15 10 -27 22
-12 12 -24 20 -27 16 -4 -3 -7 -1 -7 5 0 7 -5 12 -12 12 -6 0 -21 8 -32 19
-12 10 -41 29 -66 42 -25 13 -47 27 -50 30 -5 7 -61 39 -125 73 -22 12 -42 23
-45 26 -11 11 -136 70 -147 70 -7 0 -13 5 -13 10 0 6 -9 10 -20 10 -11 0 -20
5 -20 10 0 6 -11 10 -24 10 -13 0 -26 3 -28 8 -3 8 -127 62 -141 62 -4 0 -28
9 -52 20 -24 11 -52 21 -62 23 -10 1 -24 6 -30 10 -7 5 -13 5 -13 0 0 -4 -4
-3 -8 3 -6 10 -79 34 -109 36 -7 1 -13 6 -13 11 0 6 -3 8 -6 4 -4 -3 -22 0
-40 8 -19 8 -34 12 -34 10 0 -2 -23 3 -52 11 -28 9 -61 18 -72 20 -29 5 -89
18 -98 20 -5 1 -9 2 -10 3 -2 2 -14 4 -28 7 -14 2 -38 7 -55 10 -82 14 -137
22 -195 28 -25 3 -70 8 -100 11 -30 4 -74 8 -97 10 -24 2 -47 6 -53 10 -5 3
-10 1 -10 -6 0 -8 -4 -8 -12 -2 -19 15 -381 16 -372 1 5 -7 3 -8 -7 -3 -16 11
-49 14 -49 6z"/>
</g>
</svg>
